<?xml version="1.0" encoding="utf-8"?>
<!-- Generator: Adobe Illustrator 19.2.1, SVG Export Plug-In . SVG Version: 6.00 Build 0)  -->
<svg version="1.1" id="Layer_1" xmlns="http://www.w3.org/2000/svg" xmlns:xlink="http://www.w3.org/1999/xlink" x="0px" y="0px"
	 viewBox="0 0 336.8 80.5" style="enable-background:new 0 0 336.8 80.5;" xml:space="preserve">
<style type="text/css">
	.st0{fill:#FFFFFF;}
	.st1{fill:#C7C8CA;}
	.st2{fill:#939598;}
	.st3{fill:#D1D3D4;}
	.st4{fill:#EC008C;}
</style>
<g>
	<g>
		<path class="st0" d="M14.6,74.4C8.8,74.4,4.1,69.8,4.1,64V14.1c0-5.8,4.7-10.5,10.5-10.5h50.3c5.8,0,10.5,4.7,10.5,10.5V64
			c0,5.8-4.7,10.4-10.5,10.4H14.6z"/>
		<path class="st1" d="M61.6,25.8c-1.1-1.1-2.6-2.2-4.3-3.2c0,0,0.9,6.6-0.4,9.5c-1,2.4-2.4,5.4-5.3,8.4c-6.2,6.3-11.8,9.3-11.8,9.3
			v10.5c0,0,1.7,1.3,2.9,1.7c1.2,0.3,3.6,0.5,3.6,0.5l-3.2-3c0,0,0.4-0.6,1-0.3c0.6,0.3,2.2,1.8,3.2,2.1c1,0.3,3-0.3,3-0.3
			s-2.1-1.2-2.7-1.7c-0.6-0.5-1.7-1.6-1.7-1.6s0.7-0.5,1.4-0.1c0.7,0.4,2.3,1.7,3,1.8c0.7,0.1,2.4,0.2,2.4,0.2l1.2-1
			c0,0-3.4-1.6-4.8-3.1c-1.4-1.5-2-2.4-2-2.4s0.7,0,1.9,0.7c1.2,0.7,1,1,1.6,1.4c0.7,0.4,4.8,2.5,4.8,2.5s7.4-5.2,10.5-11.6
			C69.4,38.3,66.2,30.3,61.6,25.8"/>
		<path class="st1" d="M18,25.8c1.2-1.1,2.7-2.3,4.4-3.3c0,0-1,6.6,0.3,9.6c1,2.4,2.4,5.4,5.3,8.4c6.2,6.3,11.8,9.3,11.8,9.3v10.5
			c0,0-1.7,1.3-2.9,1.7c-1.2,0.3-3.6,0.5-3.6,0.5l3.2-3c0,0-0.4-0.6-1-0.3c-0.6,0.3-2.2,1.8-3.2,2.1c-1,0.3-3-0.3-3-0.3
			s2.1-1.2,2.7-1.7c0.6-0.5,1.7-1.6,1.7-1.6s-0.7-0.5-1.4-0.1c-0.7,0.4-2.3,1.7-3,1.8c-0.7,0.1-2.4,0.2-2.4,0.2l-1.2-1
			c0,0,3.4-1.6,4.8-3.1c1.4-1.5,2-2.4,2-2.4s-0.7,0-1.9,0.7c-1.2,0.7-1,1-1.6,1.4c-0.7,0.4-4.8,2.5-4.8,2.5S17,52.4,13.9,46
			C10.2,38.3,13.5,30.3,18,25.8"/>
		<path class="st2" d="M60.8,25.7c-9.6-8.2,3.9,1.4-8.4,13.9c-6,6.1-12.7,9.3-12.7,9.3s-6.7-3.2-12.7-9.3
			c-12.3-12.5,1.3-22.1-8.4-13.9c-4.7,4-7.6,12.1-4,19.5c3,6.2,10,10.6,10,10.6s4.1-1.4,4.8-1.8c0.6-0.4,1.6-2,2.7-2.7
			c1.2-0.7,0.7,0.6,0.7,0.6s-0.6,0.9-2,2.4c-1.3,1.5-4.6,3-4.6,3l1.1,1c0,0,1.6-0.2,2.3-0.2c0.7-0.1,2.2-1.4,2.9-1.8
			c0.7-0.4,1.3,0.1,1.3,0.1s-1,1.1-1.6,1.6c-0.6,0.5-2.6,1.7-2.6,1.7s2,0.6,2.9,0.3c1-0.3,2.5-1.8,3.1-2c0.6-0.3,0.9,0.3,0.9,0.3
			l-3.1,2.9c0,0,2.3-0.1,3.5-0.4c1.2-0.3,2.8-1.6,2.8-1.6s1.6,1.3,2.8,1.6c1.2,0.3,3.5,0.4,3.5,0.4L43,58.2c0,0,0.3-0.6,0.9-0.3
			c0.6,0.3,2.1,1.7,3.1,2c1,0.3,2.9-0.3,2.9-0.3s-2-1.2-2.6-1.7c-0.6-0.5-1.6-1.6-1.6-1.6s0.6-0.5,1.3-0.1c0.7,0.4,2.2,1.7,2.9,1.8
			c0.7,0.1,2.3,0.2,2.3,0.2l1.1-1c0,0-3.3-1.6-4.6-3c-1.3-1.5-2-2.4-2-2.4s-0.5-1.4,0.7-0.6c1.2,0.7,2.1,2.4,2.7,2.7
			c0.6,0.4,4.8,1.8,4.8,1.8s7-4.4,10-10.6C68.4,37.8,65.6,29.8,60.8,25.7"/>
		<path class="st0" d="M38.1,49.4v1.4c0,0-4.7-2.5-7.2-4.8c-2.4-2.2-6.3-6.7-7.5-9.5c-1.2-2.8-1.7-3.5-1.7-3.5s3.2,5.5,6.2,8.9
			C31.7,46,38.1,49.4,38.1,49.4"/>
		<path class="st0" d="M33.3,52.7c0,0,0.3-0.6,0.6-0.3c0.3,0.3-0.3,0.9-0.3,1.1c0,0.2-2.5,2.5-3,2.9c-0.6,0.4-3,1.2-3,1.2
			s3-1.8,3.8-2.7C32.2,54.1,33.3,52.7,33.3,52.7"/>
		<path class="st0" d="M31.5,59.3c0,0,1.5-1.1,2-1.7c0.6-0.6,1.5-0.9,1.4-0.5c0,0.4-1,1-1.5,1.4C33,58.9,31.5,59.3,31.5,59.3"/>
		<path class="st0" d="M38.1,58.4c0,0-0.8,0.3-1.4,0.9c-0.6,0.6-0.9,1-0.9,1s0.8-0.2,1.3-0.6C37.7,59.4,38.1,58.4,38.1,58.4"/>
		<path class="st0" d="M41.5,49.4v1.4c0,0,4.7-2.5,7.2-4.8c2.4-2.2,6.3-6.7,7.5-9.5c1.2-2.8,1.7-3.5,1.7-3.5s-3.2,5.5-6.2,8.9
			C47.9,46,41.5,49.4,41.5,49.4"/>
		<path class="st0" d="M46.3,52.7c0,0-0.3-0.6-0.6-0.3c-0.3,0.3,0.3,0.9,0.3,1.1c0,0.2,2.5,2.5,3,2.9c0.6,0.4,3,1.2,3,1.2
			s-3-1.8-3.8-2.7C47.5,54.1,46.3,52.7,46.3,52.7"/>
		<path class="st0" d="M48.1,59.3c0,0-1.5-1.1-2-1.7c-0.6-0.6-1.5-0.9-1.4-0.5c0,0.4,1,1,1.5,1.4C46.7,58.9,48.1,59.3,48.1,59.3"/>
		<path class="st0" d="M41.5,58.4c0,0,0.8,0.3,1.4,0.9c0.6,0.6,0.9,1,0.9,1s-0.8-0.2-1.3-0.6C42,59.4,41.5,58.4,41.5,58.4"/>
		<path class="st0" d="M43.9,21.1c0.1,0,0.1,0,0.2-0.1c0.4-0.1,0.7-0.3,1.1-0.4c0.1-0.1,0.3-0.1,0.3-0.3c0-0.2-0.2-0.2-0.3-0.3
			c-0.2,0.1-0.4,0.2-0.6,0.3c-0.1,0.2-0.4,0.3-0.6,0.4C43.8,20.9,43.7,20.9,43.9,21.1C43.8,21.1,43.8,21.1,43.9,21.1"/>
		<path class="st0" d="M40.6,41.4c-0.3-0.6-0.7-1.2-1-1.8C39.8,40.3,40.2,40.9,40.6,41.4c0.2,0.8,0.6,1.5,1.1,2.1
			c0.1,0.1,0.1,0.2,0.2,0.2c0,0,0.1,0,0.1,0c0.1-0.1,0-0.3,0-0.4C41.5,42.7,41.2,42,40.6,41.4"/>
		<path class="st0" d="M46.8,43.7c0.1,0.3,0.2,0.5,0.3,0.7l0.3-0.2C47.2,44.2,47.2,43.8,46.8,43.7"/>
		<path class="st0" d="M38.5,32.4L38.5,32.4c0.6,0,1.2,0.2,1.8,0.2c0.1,0,0.2,0,0.2,0c-0.5-0.5-1-0.7-1.6-0.8c0,0,0,0,0,0
			c-0.2,0,0,0.2-0.1,0.3c-0.4,0-0.9-0.1-1.3-0.2c-0.1,0-0.1,0-0.2,0c-0.2,0-0.4,0.1-0.6,0.3H37C37.5,32.2,38,32.2,38.5,32.4"/>
		<path class="st0" d="M46.4,44.4c-0.2,0-0.3-0.2-0.3-0.4c-0.1-0.3-0.3-0.4-0.5-0.5c-0.4-0.3-0.9-0.5-1.3-0.8
			c-0.3,0.1-0.7,0.2-1,0.3c0,0.2,0.1,0.3,0.2,0.4c0.3,0.4,0.4,0.9,0.1,1.4c-0.1,0.1,0,0.2-0.1,0.4c-0.3-0.9-0.7-1.7-1.3-2.4
			c0.3,1.1,0.7,2.2,1.4,3.2c0.2,0.3,0.1,0.7,0,1c0,0,0.1,0,0.1,0c0,0,0,0,0,0c0,0,0,0,0,0l3-2.1C46.7,44.5,46.6,44.4,46.4,44.4"/>
		<path class="st0" d="M34.9,36.2c-0.1,0.3,0,0.6,0.1,0.8c0.4,1.1,1,2,1.5,3c0.1,0.1,0.2,0.2,0.3,0.2c0,0,0,0,0,0
			c0.1,0,0.1,0.1,0.2,0.1c0,0,0.1,0,0.1-0.1c0.1-0.2,0.1-0.3,0-0.5C36.3,38.7,35.5,37.6,34.9,36.2"/>
		<path class="st0" d="M38.2,41.6c0-0.3-0.1-0.6-0.1-0.8c0,0-0.1,0.1-0.1,0.1c-0.1,0-0.1-0.1-0.2-0.2c-0.1-0.2-0.1-0.3-0.4-0.5
			c0.1,0.4,0.2,0.7,0.2,1c0,0,0,0.1,0,0.1c0,0.1,0,0.1,0,0.2c0.1,0.3,0.2,0.5,0.3,0.8c0.1,0.1,0.2,0.3,0.4,0.3c0-0.2,0-0.3-0.1-0.5
			C38.3,41.9,38.3,41.7,38.2,41.6"/>
		<path class="st0" d="M38.6,34.7c-0.3-0.3-0.7-0.2-0.9-0.5c-0.4,0.1-0.3,0.4-0.4,0.6c0,0.4,0.3,0.5,0.6,0.7
			c0.2-0.3,0.6-0.4,0.9-0.4c0.1,0,0.2,0,0.4,0c0.1,0,0.3,0,0.4,0C39.2,34.8,38.8,34.9,38.6,34.7"/>
		<path class="st0" d="M40.1,37.4c-0.1-0.1-0.3-0.1-0.4-0.1c-0.1,0-0.1,0-0.2,0.1c-0.1,0.1,0.1,0.3,0.2,0.5c0,0.1,0.1,0.2,0.1,0.3
			c1.2,1.7,3.1,2.6,4.7,3.8c0.1,0,0.1,0.1,0.2,0.1c0,0,0.1,0,0.1-0.1c-0.5-1.1-1.3-2.1-2.1-3.1C42.1,37.9,41,37.8,40.1,37.4"/>
		<path class="st0" d="M40.9,34.7c0-0.1-0.1-0.1-0.1-0.1c-0.1,0-0.1,0-0.2,0.1c0,0.3,0,0.5,0.1,0.8c-0.1,0.3-0.3,0.5-0.2,0.7
			c0,0.2,0.1,0.2,0.2,0.2c0.1,0,0.3-0.1,0.4-0.1h0c0.1,0,0.1,0,0.2,0.1c0.1,0.1,0.2,0.1,0.3,0.2c0.3,0.3,0.6,0.6,0.9,0.9
			c-0.1-0.4-0.6-0.7-0.7-1.1c0-0.3-0.2-0.6-0.4-0.9C41.3,35.3,40.9,35.1,40.9,34.7"/>
		<path class="st0" d="M40.4,34.2c-0.3-0.1-0.6-0.3-1-0.3c0.4,0.2,0.7,0.4,1,0.5C40.4,34.3,40.4,34.3,40.4,34.2"/>
		<path class="st0" d="M38,40.1c-0.1-0.3-0.2-0.6-0.4-0.8c0,0.1-0.1,0.1-0.1,0.2C37.7,39.7,37.8,39.9,38,40.1"/>
		<path class="st0" d="M41.7,47.9c0-0.1,0.2,0,0.2-0.1c-0.2-0.7-0.5-1.3-1-1.8C41.1,46.7,41.3,47.3,41.7,47.9"/>
		<path class="st0" d="M38.4,30.9c1,0.4,2,0.7,2.7,1.5c0.1,0.1,0.2,0.1,0.3,0.1c0.1,0,0.1,0,0.2,0c-0.3-0.8-2-1.7-3.3-1.7
			c0,0-0.1,0-0.1,0C38.2,30.9,38.3,30.9,38.4,30.9"/>
		<path d="M38.4,25.4C38.4,25.4,38.4,25.5,38.4,25.4c0.1,0.1,0.1,0.3,0.1,0.4c-0.1,0-0.2,0-0.3,0c-0.1,0-0.2,0-0.3,0.1
			c-0.1,0.1-0.2,0.3-0.4,0.4c0.1,0.1,0.2,0.1,0.2,0.2c0,0,0.1,0,0.1,0.1c0,0,0.1,0.1,0.1,0.1c0.2,0.2,0.3,0.4,0.3,0.5l0,0
			c0.1,0,0.1-0.1,0.2-0.1c0.2-0.3,0.5-0.5,0.9-0.5c0.1,0,0.2,0,0.2,0c0-0.1,0.1-0.1,0.1-0.1c0,0,0,0,0,0c0.1,0,0.2,0,0.3,0
			c0.4,0,0.7,0.1,1.1,0.3c0.1,0.1,0.3,0.1,0.1,0.3c0.1,0.2,0.3,0.5-0.1,0.6c0.1,0.1,0.2,0.2,0.2,0.2c0,0,0,0,0,0
			c0.1,0.1,0.3,0.2,0.4,0.3c0,0,0,0,0.1,0c0,0,0,0,0.1,0c0.2,0,0.3,0.1,0.5,0.2c0,0,0.1,0,0.1,0.1c0,0,0.1,0,0.1,0
			c0.3,0.1,0.7,0.1,1,0.2c0.2-0.1,0.4-0.1,0.6-0.2c0.2,0,0.4-0.1,0.5-0.1c0.1,0,0.1,0,0.2,0c0.1,0,0.1,0,0.2,0.1
			c0.1,0.2-0.1,0.3-0.2,0.3c-0.2,0.2-0.5,0.3-0.8,0.4c0.1,0,0.2,0,0.3,0c0.2,0,0.3,0.1,0.4,0.2c0.1,0,0.2,0.1,0.3,0.1
			c0.4-0.2,0.8-0.4,1.1-0.8c0.1-0.2,0.3-0.3,0.1-0.5c-0.1-0.2-0.3-0.2-0.5-0.3c0,0-0.1,0-0.1,0c-0.1,0-0.3,0-0.4,0.1
			c-0.2,0.1-0.3,0.2-0.5,0.2c-0.2,0-0.2-0.2-0.3-0.5c0-0.2,0-0.3,0.1-0.3c0,0,0.1,0,0.2,0c0.1,0,0.1,0,0.2,0c0.2,0,0.3-0.2,0.3-0.4
			c0-0.3,0.1-0.4,0.3-0.4c0.1,0,0.1,0,0.2,0c0.1,0,0.1,0,0.2,0c0.4,0,0.5-0.2,0.5-0.6c-0.6,0-1.1-0.1-1.7-0.2c0.1,0,0.3,0,0.4-0.1
			c-0.4,0-0.7-0.1-1.1-0.1c-0.4,0-0.6-0.2-0.5-0.6c0.1-0.1,0.2-0.2,0.3-0.2c0.2,0,0.4,0,0.6,0c0.8,0,1.6,0.1,2.4,0.3
			c0.1,0,0.1,0,0.2,0c0.2,0,0.3,0,0.4-0.1c0.2-0.2,0.4-0.3,0.7-0.4c0.2-0.1,0.3-0.1,0.5-0.1c0.2,0,0.4,0,0.6,0c0.1,0,0.1,0,0.2,0
			c0,0,0.1,0,0.1,0c0.8,0,1.3-0.4,1.7-1c0-0.1-0.1-0.1-0.2-0.1c-0.1,0-0.2,0-0.2,0.1c-0.8,0.1-1.6,0.3-2.4,0.4
			c-0.6,0.1-1.2,0.1-1.8,0.2c0.3-0.2,0.7-0.3,1.1-0.4c1.1-0.3,2.3-0.4,3.4-0.8c-0.1-0.5,0.3-0.8,0.6-1.1c-0.1,0-0.2,0-0.3,0
			c-0.5,0-1,0.2-1.5,0.4c-0.2,0.1-0.3,0.1-0.5,0.2c-0.2,0-0.4,0-0.6,0c-1.4,0-2.7,0.4-4.1,0.8c0.6-0.2,1.1-0.5,1.7-0.7
			c2-0.2,3.9-0.9,5.9-1.5c0-0.1,0.1-0.2,0.1-0.3c0.1-0.1,0.4-0.1,0.5-0.3c0.2-0.2,0.4-0.3,0.6-0.5c0.1-0.1,0.3,0,0.4-0.2
			c0.2-0.4,0.1-0.6-0.1-0.6c-0.1,0-0.2,0-0.3,0c0,0-0.1,0-0.2,0c0,0,0,0-0.1,0c-0.1-0.1-0.3-0.2-0.4-0.2c-0.3,0-0.6,0.3-0.9,0.4
			c-0.2,0.1-0.3,0.2-0.4,0.3c-0.1,0-0.1,0.1-0.2,0.1c-0.1,0-0.1-0.1-0.1-0.2c-0.1,0.2-0.3,0.3-0.5,0.4c-2.2,0.6-4.2,1.5-6.3,2.2
			c-0.1,0-0.3,0.1-0.4,0.1h0c-0.1,0-0.3-0.1-0.3-0.2c-0.1-0.2,0-0.3,0.1-0.4c0.8-0.6,1.7-1.2,2.7-1.4c0.1,0.1,0.2,0.1,0.3,0.1
			c0.1,0,0.2,0,0.4-0.1c1.3-0.3,2.6-0.8,3.9-1.1c0.2-0.1,0.5-0.1,0.7-0.1c1-0.7,2.2-1.2,3.2-1.9c0.2-0.1,0.4-0.2,0.5-0.4
			c0.1-0.1,0.3-0.2,0.2-0.3c0-0.1-0.1-0.1-0.1-0.1c-0.1,0-0.2,0-0.2,0c-0.1,0-0.2,0-0.3,0.1c-0.6,0.4-1.2,0.3-1.8,0.4
			c-0.2,0-0.5,0.1-0.7,0.1c0,0-0.1,0-0.1,0c-0.3,0.2-0.7,0.3-1,0.4c-0.6,0.1-1.2,0.3-1.8,0.5c-0.2,0.1-0.4,0.2-0.6,0.4
			c0,0-0.1,0-0.1,0.1C49.3,18,49.2,18,49,18c-0.1,0-0.2,0-0.2,0c-0.8,0.4-1.7,0.5-2.5,0.7c-0.5,0.1-1,0.4-1.5,0.6
			c-1.3,0.5-2.7,1.1-3.5,2.4c0,0.1,0,0.2,0,0.2c0.1-0.1,0.1-0.1,0.2-0.2c0,0.1-0.1,0.2-0.1,0.3c-0.1,0.6-0.5,1.1-0.6,1.7
			c-0.1,0.2-0.3,0.3-0.4,0.6c-0.3,0.3-0.7,0.4-1.1,0.5c0,0-0.1,0-0.1,0c-0.2,0.1-0.4,0.2-0.6,0.2C38.6,25.2,38.5,25.3,38.4,25.4
			 M45,20.1c0.2,0,0.3,0.1,0.3,0.3c0,0.2-0.1,0.2-0.3,0.3c-0.4,0.2-0.7,0.3-1.1,0.4c-0.1,0-0.1,0.1-0.2,0.1c0,0-0.1,0-0.1-0.1
			c-0.1-0.1,0.1-0.2,0.1-0.3c0.2-0.2,0.4-0.2,0.6-0.4 M42.3,23.9c0-0.2,0.1-0.4,0-0.6c0-0.5,0.1-0.9,0.3-1.4
			c0.1-0.1,0.2-0.3,0.3-0.3c0,0,0.1,0,0.1,0c0.2,0.1,0.2,0.3,0.2,0.5c0,0.3-0.3,0.6-0.4,0.8c-0.3,0.2-0.3,0.5-0.3,0.9
			c-0.1,0.2-0.2,0.4-0.2,0.6c0,0-0.1,0-0.1,0C42.4,24.4,42.3,24.1,42.3,23.9 M38.7,25.7c0,0,0.1,0,0.1,0c0.1,0,0.1,0,0.2,0
			c0,0,0,0,0.1,0h0c0.6,0,1.2-0.3,1.8-0.3c0.1,0,0.2,0,0.2,0c-0.1-0.2,0-0.3,0.1-0.5c0.1-0.1,0.2-0.1,0.3-0.1c0,0,0.1,0,0.1,0
			c0.1,0,0.2,0.1,0.3,0.1c0.1,0,0.2-0.1,0.2-0.1c0,0,0.1,0,0.1,0.1c0,0.1,0,0.2,0,0.3c0.1,0,0.2,0,0.2,0c0.3,0,0.5,0.1,0.7,0.2
			c0.2,0.1,0.5,0.2,0.7,0.3c-0.5,0-1-0.1-1.4-0.1c-0.1,0-0.2,0-0.3,0c-0.1,0.1-0.1,0.3-0.3,0.3c-0.2,0-0.4,0-0.6,0
			c-0.9,0-1.7,0-2.6-0.3C38.9,25.8,38.8,25.8,38.7,25.7C38.7,25.8,38.7,25.8,38.7,25.7l-0.1,0.1C38.6,25.8,38.6,25.8,38.7,25.7
			C38.7,25.7,38.7,25.7,38.7,25.7"/>
		<path d="M43.8,46.9L43.8,46.9C43.8,46.9,43.8,46.9,43.8,46.9L43.8,46.9z"/>
		<path d="M22,24.7C22,24.7,22,24.7,22,24.7c0.2,0.1,0.5,0.2,0.7,0.2c0.1,0,0.2,0,0.3-0.1c0,0,0.1,0,0.1,0c0.1,0,0.2,0.1,0.3,0.1
			c0.4,0.5,1.2,0.7,1.5,1.3c0.1,0.2,0.3,0.2,0.5,0.2c0.1,0.1,0.2,0.1,0.3,0.1c0.1,0,0.1,0,0.2,0c0.2,0,0.4,0,0.5,0.3
			c0.1,0.6,0.6,0.9,1.1,1.1c0.3,0.1,0.5,0.2,0.7,0.5c0.2,0.2,0.4,0.3,0.6,0.3c0.2,0,0.4-0.1,0.7-0.1c0.4-0.1,0.8-0.3,1.2-0.4
			c0,0.4-0.2,0.5-0.5,0.5c-0.3,0.1-0.5,0.3-0.4,0.6c0.1,0.1,0.3,0.3,0.4,0.5c0.1,0,0.1,0,0.2,0c0.2,0,0.4-0.1,0.5-0.3
			c-0.1,0-0.2,0-0.3-0.1c-0.2-0.1-0.5-0.3-0.4-0.5c0.1-0.3,0.4-0.2,0.7-0.2c0,0.2,0.5,0.3,0.2,0.6c0.1,0,0.2-0.1,0.2-0.1
			c0.1-0.1,0.2-0.1,0.3-0.1c0.1,0,0.2,0.1,0.1,0.4c-0.1,0.6-0.1,1.1-0.2,1.7c0,0,0.1,0,0.1,0c0.2,0,0.4-0.1,0.5-0.3
			c0,0,0.1-0.1,0.1-0.1c0.2-0.3,0.4-0.6,0.6-0.9c0.1-0.1,0.1-0.3,0.4-0.3h0c-0.1,0.4-0.1,0.8-0.1,1.3c0,0.3,0,0.7,0.1,1
			c0.1,0.1,0,0.3,0,0.4c-0.1,0.2-0.2,0.3-0.3,0.5c-0.3,0.8-0.4,1.6,0.3,2.4c0.2-0.3,0-0.7,0.2-1c0-1,1-2.2,1.9-2.3
			c-0.2,0.3-0.4,0.5-0.6,0.8c-0.2,0.2-0.4,0.5-0.6,0.7c-0.2,0.3-0.3,0.5-0.3,1c0.5-0.5,0.8-0.9,1.4-0.9c0.1,0.3-0.3,0.3-0.3,0.5
			c0.1,0,0.3,0,0.4,0c0.2,0,0.5,0,0.7-0.1c-0.2,0.3-0.6,0.6-0.8,1c0.1,0,0.2,0,0.4,0c0.2,0,0.4,0,0.6,0.1c0.1,0.1,0.3,0.1,0.3,0.3
			c0,0.2-0.2,0.1-0.3,0.2c-0.1,0-0.1,0-0.2,0c-0.2,0-0.3,0-0.5,0.1c0.1,0.6,0.5,0.9,0.7,1.4c-0.8-0.2-0.9-0.4-1-1.3
			c-0.4,0.1-0.7,0.5-1.1,0.7c-0.1,0.1-0.1,0.2-0.1,0.4c0,1,0.1,1.9,0.7,2.7c0.3,0.4,0.5,0.9,0.7,1.4c0.5,1.5,1.2,2.9,1.9,4.4
			c0.2,0.4,0.5,0.6,0.9,0.6c0,0,0.1,0,0.1,0c0.2,0.1,0.3,0.1,0.5,0.2c0.5,0.1,0.8,0.1,1.2,0.7c0.4,0.5,0.6,1.2,1,1.6l0.5-0.3
			c-0.4-0.6-0.6-1.2-0.8-1.9c0.5,0.5,0.8,1.2,1,1.8c0.2,0,1.8-0.9,1.8-0.9c0,0,0,0,0,0c0,0-0.1,0-0.1,0c0.1-0.3,0.2-0.7,0-1
			c-0.7-1-1-2.1-1.4-3.2c0.6,0.7,1,1.6,1.3,2.4c0-0.1,0-0.3,0.1-0.4c0.3-0.5,0.2-0.9-0.1-1.4c-0.1-0.1-0.2-0.2-0.2-0.4
			c0.3-0.1,0.7-0.2,1-0.3c0.4,0.3,0.9,0.5,1.3,0.8c0.2,0.1,0.5,0.3,0.5,0.5c0,0.2,0.1,0.3,0.3,0.4c0.2,0,0.3,0.1,0.4,0.4l0.4-0.3
			c-0.1-0.2-0.2-0.4-0.3-0.7c0.4,0.1,0.4,0.4,0.6,0.5c0.1-0.1,0.4-0.4,0.4-0.4c-0.3-0.4-0.5-0.9-0.8-1.2c-0.9-1.7-1.8-3.4-2.6-5.1
			c-0.5-1.1-1-2.2-2-3c0,0-0.1-0.1-0.1-0.2c0-0.4-0.2-0.9,0-1.3c-0.1-0.2,0-0.5-0.2-0.7c0,0-0.1-0.1-0.2-0.1c-0.1,0-0.1-0.1-0.1-0.2
			c0-0.1,0.1-0.1,0.1-0.1c0,0,0.1,0,0.1,0c0.1,0.1,0.3,0.1,0.4,0.1c0,0,0,0,0.1,0c0.1,0,0.1,0,0.2,0c0.1-0.4-0.4-0.5-0.5-0.9
			c0.3,0.1,0.6,0.4,0.9,0.5c0-0.3,0.1-0.5,0.3-0.5c0.1,0,0.1,0,0.2,0c0.1,0,0.1,0,0.2,0c0.1,0,0.2,0,0.3,0c0.4-0.1,0.6-0.3,0.7-0.6
			c0.1-0.4-0.3-0.2-0.4-0.4c-0.9-0.1-1.8-0.4-2.5-0.9c-0.1,0-0.2,0-0.3,0c-0.2-0.2-0.5-0.4-0.7-0.6c-0.1-0.1-0.2-0.3-0.4-0.3
			c0,0-0.1,0-0.2,0c0,0,0,0,0,0c-0.1,0-0.2-0.1-0.3-0.2c-0.1-0.2-0.1-0.4-0.2-0.5c-0.2,0-0.2,0.2-0.4,0.3c0,0.1-0.1,0.2-0.1,0.3
			c-0.7,0.4-1,1.1-1.1,1.8c0,0.4-0.2,0.6-0.5,0.6c0,0-0.1,0-0.2,0c0,0-0.1,0-0.1,0c-0.1,0-0.2,0-0.3,0.1c-0.4,0.3-0.9,0.4-1.3,0.6
			c0,0,0,0,0,0c-0.1,0-0.1-0.1-0.1-0.2c-0.2,0.1-0.3,0.2-0.6,0.2c0,0,0,0,0,0c0-0.3,0.4-0.3,0.3-0.5c-0.1,0-0.2,0.1-0.3,0.1
			c0-0.2,0.1-0.2,0.1-0.3c0.6-0.6,1.2-1,2.1-1c0.1-0.2,0.2-0.4,0.4-0.6c0.1-0.1,0.2-0.2,0.2-0.3c0-0.1,0.1-0.2,0.2-0.3
			c0-0.2-0.1-0.5-0.4-0.6c0,0,0,0,0-0.1c-0.1,0-0.1-0.1-0.2-0.1c-0.2,0-0.3-0.1-0.1-0.2c0.1,0,0.1,0,0.2,0.1c0-0.1,0-0.2-0.1-0.2
			c-0.2-0.2-0.4-0.3-0.7-0.3c0,0,0,0-0.1,0c0,0,0,0,0,0c-0.1-0.4-0.4-0.7-0.7-0.9c0,0-0.1-0.1-0.1-0.1c-0.2,0-0.4,0.2-0.6,0.2
			c-0.1,0-0.2,0-0.2,0c0,0-0.1,0-0.1,0c-0.2,0-0.4,0-0.6,0c0.1-0.2,0.2-0.3,0.4-0.3c0.1,0,0.1,0,0.2,0c0,0,0,0.1,0,0.1
			c0,0,0,0,0.1,0c0,0,0,0,0.1,0c0.1,0,0.1,0,0.2-0.1c0.3-0.2,0.6-0.3,0.9-0.3c0.1,0,0.2,0,0.3,0c0.1,0,0.1,0,0.2,0
			c0.1,0,0.3,0,0.4-0.1c0.2-0.1,0.4-0.3,0.3-0.6c0-0.2-0.2-0.3-0.4-0.3c0,0-0.1,0-0.1,0c-0.1,0-0.2,0-0.2,0c-0.1,0-0.1,0-0.2,0
			c0.2-0.2,0.3-0.4,0.2-0.8c0-0.1,0-0.3,0-0.4c0.1-0.2,0-0.3-0.2-0.4c-0.4-0.2-0.8-1.1-0.6-1.4c0.1-0.2,0.5-0.2,0.5-0.6
			c0,0,0.1,0,0.1,0c0.1,0,0.3,0,0.4,0.1c0,0,0,0,0.1,0c0,0,0.1,0,0.1,0.1c0.2,0.2,0.4,0.4,0.2,0.6c-0.2,0.3-0.1,0.4,0.2,0.5
			c0.3,0.1,0.2,0.3,0,0.4c-0.4,0.3-0.3,0.5,0.1,0.7c-0.1,0.4-0.1,0.7,0.2,1c0.1,0.1,0.1,0.2,0.3,0.2c-0.1-0.2-0.2-0.4-0.2-0.6
			c0.3,0.1,0.5,0.1,0.7,0.1c0.4,0,0.6-0.2,0.7-0.6c-0.3-0.2-0.4-0.4-0.2-0.8c0.1-0.2-0.1-0.4-0.1-0.5c0-0.1,0-0.1,0-0.2
			c0.1-0.5,0-0.9-0.4-1.2c-0.1-0.2-0.3-0.3-0.5-0.5c-0.3-0.2-0.7-0.2-1-0.4c-0.2-0.2-0.3-0.2-0.5-0.2c-0.3,0-0.6,0.1-0.8,0.2
			c-0.2,0.1-0.5,0.1-0.6,0.3c-0.1,0.1-0.1,0.3-0.1,0.6c0.1-0.1,0.3-0.2,0.5-0.2c0.2,0,0.4,0.1,0.4,0.2c0.1,0.4-0.3,0.5-0.7,0.7
			c0.3,0.1,0.6,0.3,0.5,0.5c-0.1,0.4,0,0.8-0.3,1.1c0,0,0,0.1,0,0.1c-0.4,0.3-0.2,0.6-0.2,1c0,0.6-0.1,0.8-0.6,1
			c-0.4-0.2-0.8,0-1.2-0.3c-0.3-0.3-0.8-0.4-1.1-0.8c-0.2-0.4-0.5-0.6-0.9-0.9c-0.2-0.1-0.4-0.2-0.6-0.5c-0.4-0.7-0.8-1.4-1.2-2.1
			c-0.1-0.2-0.3-0.4-0.5-0.7c0,0.3,0.1,0.5,0.3,0.7c0.4,0.7,0.9,1.4,1.1,2.2c-0.1,0-0.1,0-0.2,0c-0.7-0.5-0.8-1.4-1.4-2
			c-0.3-0.3-0.4-0.7-0.5-1.1c0-0.1,0-0.1-0.1-0.2c0-0.1,0.1-0.2,0.1-0.3c0.2,0,0.3-0.1,0.3-0.3c0-0.2,0.1-0.3,0.2-0.5
			c0.1-0.3,0.2-0.5,0.4-0.8c0.3-0.4,0-0.9-0.4-1.1c-0.1,0-0.1-0.1-0.1-0.2c0.1-0.1,0.3-0.2,0.2-0.4c0-0.1-0.1-0.1-0.1-0.2
			c0,0-0.1,0-0.1,0c-0.3,0-0.7-0.1-1-0.2c-0.3-0.1-0.7-0.3-1-0.3c-0.2,0-0.5,0.1-0.7,0.4c0,0.1-0.1,0.2-0.1,0.3
			c0.3,0.4,0.7,0.6,1.1,0.6c0,0,0,0,0.1,0h0c0.3,0,0.7,0.6,0.7,1.1c-0.1,0.1-0.2,0.1-0.3,0.1c-0.1,0-0.2,0-0.3,0
			c-0.1,0-0.2,0-0.2,0.1c-0.1,0.1-0.1,0.3-0.3,0.3c-0.1,0-0.1,0-0.2,0c-0.1,0.1-0.2,0.1-0.1,0.3c0,0-0.1,0-0.1,0
			c-0.3,0-0.5-0.2-0.6-0.4c-0.1-0.2-0.1-0.5,0.2-0.7c0.2-0.1,0.1-0.3,0-0.5c-0.1-0.2-0.2-0.5-0.1-0.8c-0.4,0-0.7,0.3-1,0.3
			c-0.2,0-0.3,0.3-0.2,0.5c0.3,0.4,0.2,0.8,0.2,1.2c-0.3,0.3-0.1,0.6,0.1,0.7c0.3,0.2,0.6,0.6,1,0.7c0.2,0,0.4,0.1,0.6,0.1
			c0.1,0,0.2,0,0.3-0.1c0.1-0.1,0.2-0.1,0.4-0.2c0.3,0.1,0.5,0.4,0.6,0.6c0.1,0.2,0.1,0.3,0.1,0.5c0,0.4,0.1,0.7,0.5,0.9
			c-0.1,0-0.3-0.1-0.4-0.2c-0.5-0.3-0.9-0.5-1.5-0.6c-0.1,0-0.1,0-0.2,0c-0.8-0.2-1.6-0.6-2.5-0.8c-1.1-0.2-2-0.7-3-1.2
			c-0.3-0.1-0.6-0.3-0.9-0.3c-0.1,0-0.2,0-0.3,0c-0.1,0-0.1-0.1-0.2-0.1c-0.1,0-0.1,0-0.2,0.1C19,19,19,19.4,19.1,19.8
			c0,0.1,0.1,0.2,0.1,0.2c0.8,0.1,0.9,0.7,0.8,1.2c-0.2,0.9,0.1,1.4,1,1.6c0.1,0.2,0.1,0.3,0.2,0.5c0,0.1,0.1,0.1,0.1,0.2
			C21.3,23.6,21.5,24.3,22,24.7 M37.2,40.3c0,0.1-0.1,0.1-0.1,0.1c-0.1,0-0.1-0.1-0.2-0.1c0,0,0,0,0,0c-0.1,0-0.3-0.1-0.3-0.2
			c-0.5-1-1.2-1.9-1.5-3c-0.1-0.2-0.2-0.4-0.1-0.8c0.6,1.3,1.4,2.5,2.3,3.6C37.3,40,37.3,40.1,37.2,40.3 M38.1,42.2
			c-0.1-0.3-0.2-0.5-0.3-0.8c0-0.1,0-0.1,0-0.2c0,0,0-0.1,0-0.1c-0.1-0.3-0.1-0.7-0.2-1c0.2,0.1,0.3,0.3,0.4,0.5
			c0,0.1,0.1,0.2,0.2,0.2c0,0,0.1,0,0.1-0.1c0,0.3,0.1,0.6,0.1,0.8c0.1,0.2,0.1,0.3,0.2,0.5c0,0.1,0.1,0.3,0.1,0.5
			C38.3,42.5,38.2,42.3,38.1,42.2 M37.6,39.4c0-0.1,0.1-0.1,0.1-0.2c0.2,0.3,0.3,0.5,0.4,0.9C37.8,39.9,37.7,39.7,37.6,39.4
			 M38.7,35.1c-0.3,0-0.7,0-0.9,0.4c-0.3-0.1-0.6-0.2-0.6-0.7c0-0.3,0-0.6,0.4-0.6c0.2,0.3,0.7,0.2,0.9,0.5c0.2,0.2,0.6,0.1,1,0.4
			c-0.1,0-0.3,0-0.4,0C39,35.1,38.9,35.1,38.7,35.1 M39.3,33.9c0.5,0,0.7,0.2,1,0.3v0.2C40.1,34.2,39.7,34.1,39.3,33.9 M42,43.7
			C42,43.7,41.9,43.7,42,43.7c-0.2,0-0.3-0.1-0.3-0.2c-0.4-0.7-0.9-1.3-1.1-2.1c-0.4-0.6-0.8-1.2-1-1.9c0.3,0.6,0.7,1.2,1,1.8
			c0.5,0.6,0.9,1.3,1.3,1.9C42,43.4,42.2,43.6,42,43.7 M42.7,38.8c0.7,1,1.5,2,2.1,3.1c0,0.1-0.1,0.1-0.1,0.1
			c-0.1,0-0.1-0.1-0.2-0.1c-1.6-1.2-3.5-2.1-4.7-3.8c0-0.1-0.1-0.2-0.1-0.3c-0.1-0.2-0.3-0.4-0.2-0.5c0-0.1,0.1-0.1,0.2-0.1
			c0.1,0,0.3,0.1,0.4,0.1C41,37.8,42.1,37.9,42.7,38.8 M41.9,36.4c0.1,0.4,0.6,0.7,0.7,1.1c-0.3-0.3-0.6-0.6-0.9-0.9
			c-0.1-0.1-0.2-0.1-0.3-0.2c-0.1,0-0.1-0.1-0.2-0.1h0c-0.1,0-0.3,0.1-0.4,0.1c-0.1,0-0.2,0-0.2-0.2c-0.1-0.2,0.1-0.5,0.2-0.7
			c-0.1-0.3-0.1-0.5-0.1-0.8c0.1-0.1,0.1-0.1,0.2-0.1c0.1,0,0.1,0,0.1,0.1c0.1,0.4,0.4,0.6,0.6,0.8C41.7,35.8,41.9,36.1,41.9,36.4
			 M38.3,30.8c1.3,0,3,0.9,3.3,1.7c-0.1,0-0.1,0-0.2,0c-0.1,0-0.2,0-0.3-0.1c-0.8-0.7-1.8-1.1-2.7-1.5c-0.1,0-0.2,0-0.3-0.2
			C38.2,30.8,38.2,30.8,38.3,30.8 M37.3,31.9c0.1,0,0.1,0,0.2,0c0.4,0.1,0.8,0.2,1.3,0.2c0.1,0,0-0.3,0.1-0.3c0,0,0,0,0.1,0
			c0.6,0.1,1.1,0.3,1.6,0.8c-0.1,0-0.2,0-0.2,0c-0.7,0-1.2-0.2-1.8-0.2h0c-0.5-0.2-1-0.2-1.5-0.2h-0.3C36.9,32,37.1,31.9,37.3,31.9
			 M35.4,23.4c0.3,0,0.4,0.2,0.5,0.5c0,0-0.1,0-0.1,0C35.5,23.8,35.3,23.7,35.4,23.4 M34.2,26.2c0,0.3-0.1,0.6-0.3,0.8
			c-0.1,0.1-0.1,0.3-0.1,0.5C33.4,26.8,33.5,26.4,34.2,26.2 M32.9,29.3c-0.5,0.3-0.3,1.1-1,1.4c0.2-0.7,0.4-1.2,0.2-1.9
			c0-0.1,0-0.2,0.2-0.2h0C32.5,28.6,33,29.3,32.9,29.3 M31.8,26.8c0-0.1,0-0.2,0-0.3c0.5,0.3,0.9,0.5,1.2,1c-0.1,0-0.1,0-0.2,0.1
			c-0.1,0.6-0.5,0.7-0.9,0.9c-0.1,0-0.1,0.1-0.2,0.1c-0.1,0-0.1,0.1-0.2,0.1c0,0-0.1,0-0.1,0c-0.1-0.1,0-0.2,0-0.3
			c0-0.1,0.1-0.2,0.1-0.3c0-0.2,0.1-0.5,0.1-0.7c-0.2-0.2-0.6,0.1-0.7-0.4C31.3,26.9,31.6,26.8,31.8,26.8 M26.6,19.2
			c-0.1,0-0.1,0.1-0.2,0.1c-0.1,0.1-0.2,0.1-0.4,0.2c0-0.4,0.3-0.5,0.5-0.6c0,0,0.1,0,0.1,0c0.1,0,0.2-0.1,0.3-0.1
			c0.1,0,0.1,0,0.1,0.1C27.1,19.1,26.8,19.1,26.6,19.2 M29.5,25.8c0,0.1-0.1,0.3,0,0.3c0,0,0.1,0,0.1,0c0,0,0.1,0,0.1,0
			c0.2,0,0.3,0.2,0.4,0.2h0c0.1,0,0.1,0.2,0,0.2c-0.2,0.1-0.3,0.2-0.5,0.3c-0.4,0-0.7,0.1-1,0.4c-0.2,0-0.4,0.1-0.6,0.1
			c0,0-0.1,0-0.1,0c0.4-0.5,0-0.5-0.3-0.6c0-0.1,0-0.3,0.1-0.3c0.5-0.2,0.9-0.6,1.5-0.6C29.4,25.7,29.4,25.8,29.5,25.8 M29.1,24
			L29.1,24L29.1,24C29.1,24,29,24,29.1,24L29.1,24z M28.6,17.2L28.6,17.2c0.1,0,0.2,0.1,0.2,0.2c0,0.1-0.1,0.1-0.1,0.2
			c-0.1,0-0.2-0.1-0.2-0.2C28.4,17.2,28.5,17.2,28.6,17.2 M28,18.2c0-0.1-0.1-0.1-0.1-0.2h0.1c0.1,0,0.3,0,0.4,0.2
			c0,0.1,0,0.1,0,0.2c0,0-0.1,0-0.1,0C28.2,18.4,28.1,18.3,28,18.2 M22.2,20.9c0,0,0.1,0,0.1,0c0,0,0.1,0,0-0.1
			c-0.1-0.2-0.1-0.2,0-0.2c0.1,0,0.2,0,0.2,0.1c0.6,0.1,1.1,0.2,1.8,0.4c-0.2-0.2-0.2-0.3-0.3-0.4c1.2,0.3,2.5,0.4,3.5,1.3
			c-0.5-0.2-0.9-0.4-1.4-0.4c-0.1,0-0.3,0-0.4,0.1c0.3,0.3,1,0.4,1.2,0.9c0,0.1,0,0.2-0.1,0.2c0,0-0.1,0-0.2,0c-0.1,0-0.2,0-0.4,0
			c-0.1,0.1-0.2,0.1-0.3,0.2c-0.2-0.3-0.6-0.5-0.8-0.8C25,22,25,22,25,22c-1.2,0-2.4-0.3-3.4-1c0,0,0-0.1,0-0.1
			C21.7,20.8,22,20.9,22.2,20.9 M20.8,21.6c0.1,0,0.2,0,0.2,0c0.2,0,0.4,0.1,0.6,0.1c1.1,0.4,2.3,0.7,3.5,1.1c0.2,0.1,0.4,0,0.4,0.4
			c0,0.1,0.1,0.2,0.2,0.2c0.1,0,0.1,0,0.2,0H26c0.2,0.1,0.5,0.1,0.6,0.3c0,0.1,0,0.1,0,0.2c0.4,0.2,0.8,0.2,1.2,0.3
			c0.1-0.1,0.3-0.2,0.5-0.2h0h0c0.1,0,0.2,0,0.3,0c0.1,0,0.2,0,0.3,0.1c0,0.2-0.1,0.3-0.3,0.3c0,0.2,0.3,0.2,0.2,0.4
			c0,0.1-0.1,0.1-0.2,0.1c-0.1,0-0.1,0-0.2,0c0,0-0.1,0-0.1,0c-0.1,0.2-0.2,0.4,0,0.4c0,0,0.1,0,0.2,0c0.1,0,0.1,0,0.2,0
			c0.1,0,0.1,0,0.2,0.1c0.1,0.2,0,0.3-0.1,0.4c-0.3,0.1-0.6,0.2-0.9,0.3c-0.3,0.1-0.5,0.2-0.8,0.2c-0.3,0-0.7-0.1-1-0.2
			c0,0-0.1,0-0.1,0c-0.1,0-0.2,0-0.2,0h0h-0.1c-0.4,0-0.7-0.3-1-0.3c0.8-0.4,1.6-0.4,2.4-0.7c0,0,0,0,0,0c0,0,0,0,0,0
			c-0.2-0.2-0.5-0.2-0.8-0.3c-0.2,0-0.3-0.1-0.4-0.2c-0.1,0-0.2,0-0.3,0c-0.4,0.1-0.9,0-1.3,0.3c0,0-0.1,0-0.1,0c-0.1,0-0.2,0-0.3,0
			c-0.5-0.1-1.2-0.7-1.4-1.2c0.5,0.1,1,0.5,1.5,0.5c0,0,0.1,0,0.1,0c0.1,0,0.1,0,0.2,0c0.1-0.1,0.2-0.1,0.3-0.1c0,0,0.1,0,0.1,0
			c0.2,0,0.3,0.1,0.5,0.1c0.1,0,0.3,0,0.4-0.1c0,0,0,0,0-0.1c0,0,0,0,0,0c-0.3-0.1-0.6-0.2-0.9-0.5c-0.1-0.1-0.2-0.1-0.3-0.1h-0.1
			c0,0,0,0-0.1,0c-0.8,0-1.6-0.1-2.3-0.7C21.8,22.2,21.2,22.1,20.8,21.6"/>
		<path class="st2" d="M64.9,5.2c4.9,0,8.9,4,8.9,8.9V64c0,4.9-4,8.9-8.9,8.9H14.6c-4.9,0-8.9-4-8.9-8.9V14.1c0-4.9,4-8.9,8.9-8.9
			H64.9z M64.9,2.1H14.6c-6.6,0-12,5.4-12,12V64c0,6.6,5.4,12,12,12h50.3c6.6,0,12-5.4,12-12V14.1C76.9,7.5,71.5,2.1,64.9,2.1"/>
	</g>
	<rect x="89.4" y="2.1" class="st3" width="0.8" height="73.9"/>
	<g>
		<path d="M161.7,72L161.7,72c0-2.2,1.6-4,3.9-4c1.4,0,2.3,0.5,3,1.2l-0.9,1c-0.6-0.6-1.3-0.9-2.1-0.9c-1.5,0-2.5,1.2-2.5,2.7v0
			c0,1.5,1.1,2.7,2.5,2.7c0.9,0,1.5-0.4,2.2-1l0.9,0.9c-0.8,0.8-1.7,1.3-3.1,1.3C163.3,76,161.7,74.2,161.7,72"/>
	</g>
	<rect x="170.1" y="68.2" width="1.3" height="7.6"/>
	<g>
		<path d="M173.4,72.6v-4.4h1.3v4.3c0,1.4,0.7,2.2,1.9,2.2c1.2,0,1.9-0.7,1.9-2.1v-4.4h1.3v4.3c0,2.3-1.3,3.4-3.3,3.4
			C174.7,75.9,173.4,74.8,173.4,72.6"/>
		<path d="M184.6,74.6c1.6,0,2.7-1.1,2.7-2.6v0c0-1.5-1-2.6-2.7-2.6h-1.5v5.2H184.6z M181.8,68.2h2.8c2.4,0,4.1,1.6,4.1,3.8v0
			c0,2.1-1.7,3.8-4.1,3.8h-2.8V68.2z"/>
	</g>
	<path d="M193.1,69.8l1.3,3h-2.6L193.1,69.8z M192.5,68.2l-3.4,7.6h1.4l0.8-1.8h3.6l0.8,1.8h1.4l-3.4-7.6H192.5z"/>
	<g>
		<path d="M201.2,74.6c1.6,0,2.7-1.1,2.7-2.6v0c0-1.5-1-2.6-2.7-2.6h-1.5v5.2H201.2z M198.4,68.2h2.8c2.4,0,4.1,1.6,4.1,3.8v0
			c0,2.1-1.7,3.8-4.1,3.8h-2.8V68.2z"/>
		<path d="M213.1,74.6c1.6,0,2.6-1.1,2.6-2.6v0c0-1.5-1-2.6-2.6-2.6h-1.5v5.2H213.1z M210.2,68.2h2.8c2.4,0,4.1,1.6,4.1,3.8v0
			c0,2.1-1.7,3.8-4.1,3.8h-2.8V68.2z"/>
	</g>
	<polygon points="218.7,68.2 218.7,75.8 224.5,75.8 224.5,74.6 220.1,74.6 220.1,72.6 223.9,72.6 223.9,71.4 220.1,71.4 220.1,69.4 
		224.4,69.4 224.4,68.2 	"/>
	<polygon points="235.4,68.2 233.1,71.8 230.8,68.2 229.3,68.2 229.3,75.8 230.6,75.8 230.6,70.4 233,74 233.1,74 235.5,70.4 
		235.5,75.8 236.8,75.8 236.8,68.2 	"/>
	<path d="M238.8,68.2v7.6h5.7v-1.2h-4.4v-2h3.8v-1.2h-3.8v-2h4.3v-1.2H238.8z M240.8,67.6h1l1.3-1.3l-1.2-0.5L240.8,67.6z"/>
	<polygon points="251,68.2 249.1,71 247.2,68.2 245.6,68.2 248.3,72 245.5,75.8 247.1,75.8 249.1,72.9 251.1,75.8 252.7,75.8 
		249.9,71.9 252.6,68.2 	"/>
	<rect x="254.1" y="68.2" width="1.3" height="7.6"/>
	<g>
		<path d="M257.2,72L257.2,72c0-2.2,1.6-4,3.9-4c1.4,0,2.3,0.5,3,1.2l-0.9,1c-0.6-0.6-1.3-0.9-2.1-0.9c-1.5,0-2.5,1.2-2.5,2.7v0
			c0,1.5,1.1,2.7,2.5,2.7c0.9,0,1.5-0.4,2.2-1l0.9,0.9c-0.8,0.8-1.7,1.3-3.1,1.3C258.8,76,257.2,74.2,257.2,72"/>
		<path d="M271.6,72L271.6,72c0-1.5-1.1-2.7-2.6-2.7c-1.5,0-2.6,1.2-2.6,2.7v0c0,1.5,1.1,2.7,2.6,2.7S271.6,73.5,271.6,72 M265,72
			L265,72c0-2.2,1.7-4,4-4s4,1.8,4,3.9v0c0,2.1-1.7,3.9-4,3.9C266.7,76,265,74.2,265,72"/>
		<path d="M129.6,57.4c-7.4,0-14.2-2.8-19.2-8c-4.9-5.1-7.6-12-7.6-19.5v-0.1c0-15.5,11.8-27.7,26.9-27.7c9.6,0,15.3,3.4,20.9,8.5
			l0.4,0.3l-3.5,3.5l-0.3-0.3c-7-6.7-12.8-7.6-17.5-7.6c-6,0-11.5,2.4-15.6,6.7c-4,4.3-6.3,10.1-6.3,16.4v0.1
			c0,13,9.6,23.2,21.9,23.2c6.9,0,12.1-2.3,17.9-8.1l0.3-0.3l3.3,3.2l-0.3,0.3C142.6,56.3,135.5,57.4,129.6,57.4"/>
		<path d="M166.5,52h13.2c7,0,12.9-2.2,17.3-6.4c4.1-4,6.4-9.6,6.4-15.7v-0.1c0-6.1-2.3-11.7-6.4-15.7c-4.3-4.3-10.3-6.5-17.3-6.5
			h-13.2V52z M179.8,56.5h-18.1V2.9h18.1c16.6,0,28.6,11.2,28.6,26.7v0.2c0,7.4-2.8,14.2-8,19.1C195.2,53.8,187.9,56.5,179.8,56.5"
			/>
	</g>
	<polygon class="st4" points="260.1,2.8 245.9,25.5 231.7,2.8 218.9,2.8 218.9,56.6 230.6,56.6 230.6,21.7 245.6,44.4 245.9,44.4 
		261.1,21.5 261.1,56.6 273,56.6 273,2.8 	"/>
	<polygon class="st4" points="319.7,2.8 308.2,20.2 296.9,2.8 283,2.8 301.1,29.2 282.2,56.6 295.7,56.6 307.9,38.1 320,56.6 
		333.9,56.6 315.1,29.1 333.2,2.8 	"/>
</g>
</svg>